<svg width="59" height="34" viewBox="0 0 59 34" fill="none" xmlns="http://www.w3.org/2000/svg">
<path d="M51.8705 19.8606H51.1315V21.1437H50.2707V19.8606H47.7776V19.1784L50.2625 15.321H51.1315V19.1297H51.8705V19.8606ZM50.2707 17.5542C50.2707 17.4243 50.2707 17.2998 50.2707 17.1807C50.2761 17.0616 50.2815 16.9479 50.2869 16.8396C50.2923 16.7259 50.295 16.6231 50.295 16.531C50.3004 16.4336 50.3059 16.3469 50.3113 16.2711H50.2788C50.2355 16.3794 50.184 16.4904 50.1245 16.6041C50.0704 16.7178 50.0162 16.818 49.9621 16.9046L48.5978 19.1297H50.2707V17.5542Z" fill="#80838D"/>
<path d="M52.5044 20.6645C52.5044 20.4534 52.5558 20.3045 52.6587 20.2179C52.767 20.1313 52.8996 20.088 53.0566 20.088C53.2082 20.088 53.3382 20.1313 53.4464 20.2179C53.5601 20.3045 53.617 20.4534 53.617 20.6645C53.617 20.8757 53.5601 21.0273 53.4464 21.1193C53.3382 21.2114 53.2082 21.2574 53.0566 21.2574C52.8996 21.2574 52.767 21.2114 52.6587 21.1193C52.5558 21.0273 52.5044 20.8757 52.5044 20.6645Z" fill="#80838D"/>
<path d="M56.3033 15.2642C56.6281 15.2642 56.915 15.3183 57.1641 15.4266C57.4185 15.5294 57.6162 15.6837 57.7569 15.8895C57.9031 16.0952 57.9762 16.3524 57.9762 16.661C57.9762 16.8938 57.9302 17.0968 57.8381 17.27C57.7515 17.4433 57.6297 17.5976 57.4727 17.7329C57.3211 17.8628 57.1533 17.9765 56.9692 18.074C57.1803 18.1877 57.3752 18.3176 57.5539 18.4638C57.7326 18.6045 57.876 18.7697 57.9843 18.9592C58.098 19.1486 58.1548 19.376 58.1548 19.6413C58.1548 19.9662 58.079 20.2477 57.9275 20.4859C57.7813 20.7187 57.5701 20.9001 57.294 21.03C57.0179 21.1599 56.6904 21.2249 56.3114 21.2249C55.9054 21.2249 55.5616 21.1626 55.28 21.0381C55.0039 20.9136 54.7955 20.7376 54.6547 20.5102C54.514 20.2775 54.4436 19.9959 54.4436 19.6657C54.4436 19.4004 54.4923 19.1703 54.5898 18.9754C54.6926 18.7805 54.8253 18.6127 54.9877 18.4719C55.1555 18.3311 55.3396 18.212 55.5399 18.1146C55.3667 18.0063 55.2097 17.8845 55.0689 17.7491C54.9281 17.6084 54.8172 17.4487 54.7359 17.27C54.6602 17.0914 54.6223 16.8856 54.6223 16.6528C54.6223 16.3497 54.6953 16.0979 54.8415 15.8976C54.9877 15.6919 55.188 15.5349 55.4425 15.4266C55.6969 15.3183 55.9839 15.2642 56.3033 15.2642ZM55.2882 19.6494C55.2882 19.9147 55.3721 20.134 55.5399 20.3072C55.7077 20.4751 55.9595 20.559 56.2952 20.559C56.5225 20.559 56.7093 20.5211 56.8555 20.4453C57.0017 20.3641 57.1127 20.2558 57.1885 20.1204C57.2697 19.9797 57.3103 19.82 57.3103 19.6413C57.3103 19.4627 57.267 19.3057 57.1803 19.1703C57.0937 19.035 56.9746 18.9158 56.823 18.813C56.6768 18.7047 56.509 18.6073 56.3195 18.5206L56.2139 18.4719C56.019 18.5639 55.8512 18.6668 55.7105 18.7805C55.5751 18.8942 55.4695 19.0214 55.3937 19.1622C55.3234 19.3029 55.2882 19.4654 55.2882 19.6494ZM56.287 15.9382C56.0488 15.9382 55.8512 16.0032 55.6942 16.1331C55.5426 16.263 55.4668 16.4525 55.4668 16.7016C55.4668 16.8802 55.5047 17.0318 55.5805 17.1563C55.6617 17.2808 55.7646 17.3891 55.8891 17.4812C56.019 17.5678 56.1598 17.6517 56.3114 17.7329C56.463 17.6571 56.5983 17.5759 56.7174 17.4893C56.842 17.3972 56.9394 17.289 57.0098 17.1644C57.0856 17.0345 57.1235 16.8802 57.1235 16.7016C57.1235 16.4525 57.045 16.263 56.888 16.1331C56.7364 16.0032 56.5361 15.9382 56.287 15.9382Z" fill="#80838D"/>
<path d="M1.21903 0C1.58117 0 1.88013 0.0484245 2.11594 0.145274C2.35175 0.242123 2.5265 0.387396 2.64019 0.581094C2.75809 0.770581 2.81704 1.0106 2.81704 1.30115C2.81704 1.53274 2.77704 1.72854 2.69703 1.88856C2.62124 2.04436 2.52018 2.17279 2.39386 2.27385C2.27174 2.3707 2.1391 2.4486 1.99593 2.50755L3.1897 4.5098H2.39386L1.38957 2.6844H0.701103V4.5098H0V0H1.21903ZM1.18745 0.581094H0.701103V2.11594H1.20009C1.40642 2.11594 1.57485 2.08647 1.70538 2.02751C1.84013 1.96856 1.93909 1.88013 2.00225 1.76223C2.06962 1.64433 2.10331 1.49905 2.10331 1.32641C2.10331 1.14534 2.06962 1.00218 2.00225 0.896906C1.93909 0.787425 1.83803 0.707419 1.69907 0.656889C1.56432 0.606359 1.39378 0.581094 1.18745 0.581094Z" fill="#80838D"/>
<path d="M5.00631 1.04218C5.40634 1.04218 5.70741 1.13692 5.90953 1.32641C6.11586 1.51169 6.21903 1.80434 6.21903 2.20437V4.5098H5.73268L5.60004 4.03608H5.57477C5.47792 4.15819 5.38107 4.25925 5.28423 4.33926C5.19159 4.41926 5.08211 4.47821 4.95578 4.51611C4.83367 4.55401 4.68208 4.57296 4.50101 4.57296C4.31153 4.57296 4.14099 4.53717 3.9894 4.46558C3.83781 4.38979 3.7178 4.27609 3.62937 4.12451C3.54094 3.9687 3.49673 3.77501 3.49673 3.54341C3.49673 3.19812 3.61884 2.93495 3.86307 2.75388C4.11151 2.57282 4.48838 2.47386 4.99368 2.45702L5.53688 2.43807V2.24858C5.53688 1.99593 5.48424 1.81908 5.37897 1.71802C5.27791 1.61696 5.13474 1.56643 4.94947 1.56643C4.79366 1.56643 4.63997 1.59169 4.48838 1.64222C4.33679 1.69275 4.18941 1.75381 4.04624 1.82539L3.83781 1.33904C3.99361 1.25483 4.17046 1.18535 4.36837 1.13061C4.57049 1.07166 4.78314 1.04218 5.00631 1.04218ZM5.12632 2.88652C4.78103 2.90337 4.54102 2.96863 4.40627 3.08233C4.27152 3.19181 4.20415 3.34761 4.20415 3.54973C4.20415 3.72658 4.25047 3.85501 4.34311 3.93502C4.43996 4.01502 4.56417 4.05503 4.71576 4.05503C4.94736 4.05503 5.14106 3.98134 5.29686 3.83396C5.45687 3.68658 5.53688 3.46551 5.53688 3.17075V2.87389L5.12632 2.88652Z" fill="#80838D"/>
<path d="M8.36606 4.02976C8.45449 4.02976 8.54081 4.02134 8.62502 4.0045C8.70924 3.98765 8.78293 3.9687 8.84609 3.94765V4.45295C8.77451 4.48664 8.67976 4.51401 8.56186 4.53506C8.44817 4.56033 8.32816 4.57296 8.20184 4.57296C8.02498 4.57296 7.86286 4.54138 7.71549 4.47821C7.56811 4.41505 7.4502 4.30557 7.36178 4.14977C7.27335 3.99397 7.22913 3.77711 7.22913 3.4992V1.61696H6.79331V1.31378L7.26072 1.06113L7.49442 0.341077H7.9176V1.10534H8.82083V1.61696H7.9176V3.48656C7.9176 3.67184 7.95971 3.80869 8.04393 3.89712C8.12815 3.98555 8.23552 4.02976 8.36606 4.02976Z" fill="#80838D"/>
<path d="M10.7674 1.04218C11.0495 1.04218 11.2938 1.10534 11.5001 1.23167C11.7064 1.35378 11.8643 1.53064 11.9738 1.76223C12.0875 1.99383 12.1444 2.26753 12.1444 2.58334V2.94968H10.0031C10.0116 3.29918 10.0958 3.56657 10.2558 3.75185C10.4158 3.93712 10.6411 4.02976 10.9316 4.02976C11.138 4.02976 11.3211 4.01081 11.4811 3.97292C11.6454 3.93081 11.8117 3.86975 11.9801 3.78974V4.34557C11.8201 4.42137 11.6559 4.47821 11.4875 4.51611C11.3232 4.55401 11.1232 4.57296 10.8874 4.57296C10.58 4.57296 10.3063 4.50769 10.0663 4.37715C9.82629 4.24662 9.63891 4.05292 9.50417 3.79606C9.36942 3.53499 9.30205 3.21497 9.30205 2.83599C9.30205 2.45281 9.3631 2.12857 9.48522 1.86329C9.60733 1.59801 9.77787 1.39589 9.99683 1.25693C10.22 1.11376 10.4769 1.04218 10.7674 1.04218ZM10.7674 1.56011C10.5527 1.56011 10.38 1.63801 10.2495 1.79381C10.1189 1.94961 10.0432 2.17068 10.0221 2.45702H11.4685C11.4685 2.28016 11.4433 2.12436 11.3927 1.98962C11.3422 1.85487 11.2643 1.7496 11.159 1.6738C11.058 1.59801 10.9274 1.56011 10.7674 1.56011Z" fill="#80838D"/>
<path d="M17.3117 2.80441C17.3117 3.08654 17.2759 3.33708 17.2044 3.55604C17.1328 3.77501 17.0296 3.96028 16.8949 4.11187C16.7643 4.26346 16.6043 4.37926 16.4148 4.45927C16.2253 4.53506 16.0127 4.57296 15.7769 4.57296C15.5621 4.57296 15.3621 4.53506 15.1768 4.45927C14.9916 4.37926 14.8316 4.26346 14.6968 4.11187C14.5621 3.96028 14.4568 3.77501 14.381 3.55604C14.3094 3.33708 14.2736 3.08443 14.2736 2.79809C14.2736 2.42333 14.3347 2.10541 14.4568 1.84434C14.5789 1.58327 14.7537 1.38536 14.981 1.25062C15.2126 1.11166 15.4863 1.04218 15.8021 1.04218C16.0969 1.04218 16.358 1.11166 16.5854 1.25062C16.8127 1.38536 16.9896 1.58327 17.1159 1.84434C17.2465 2.10541 17.3117 2.42544 17.3117 2.80441ZM14.981 2.80441C14.981 3.05706 15.0084 3.27602 15.0631 3.4613C15.1221 3.64237 15.2105 3.78132 15.3284 3.87817C15.4505 3.97502 15.6042 4.02345 15.7895 4.02345C15.979 4.02345 16.1327 3.97502 16.2506 3.87817C16.3727 3.78132 16.4611 3.64237 16.5159 3.4613C16.5748 3.27602 16.6043 3.05706 16.6043 2.80441C16.6043 2.54334 16.5748 2.32438 16.5159 2.14752C16.4569 1.97067 16.3685 1.83592 16.2506 1.74328C16.1327 1.64643 15.9769 1.59801 15.7832 1.59801C15.5011 1.59801 15.2968 1.70328 15.1705 1.91382C15.0442 2.12436 14.981 2.42123 14.981 2.80441Z" fill="#80838D"/>
<path d="M19.7572 1.04218C20.1278 1.04218 20.412 1.14113 20.6099 1.33904C20.812 1.53695 20.9131 1.85487 20.9131 2.2928V4.5098H20.2309V2.38754C20.2309 2.12226 20.1783 1.92435 20.073 1.79381C19.972 1.65907 19.814 1.59169 19.5993 1.59169C19.2835 1.59169 19.0666 1.69486 18.9487 1.90119C18.8308 2.10752 18.7719 2.40438 18.7719 2.79178V4.5098H18.0897V1.10534H18.6266L18.7213 1.56011H18.7592C18.8308 1.44221 18.9171 1.34536 19.0182 1.26956C19.1193 1.19377 19.233 1.13692 19.3593 1.09903C19.4856 1.06113 19.6182 1.04218 19.7572 1.04218Z" fill="#80838D"/>
<path d="M12.0542 8.26562H14.1V20.8751H12.0542V8.26562Z" fill="#60646C"/>
<path d="M21.2148 16.8792C21.2148 18.833 19.6137 19.0106 19.08 19.0106C17.8348 19.0106 17.6569 17.8561 17.6569 17.2345V12.3501H15.6111V17.1457C15.6111 18.3002 15.9668 19.3658 16.6784 19.9875C17.3011 20.6091 18.1016 20.8755 19.08 20.8755C19.7916 20.8755 20.6811 20.6979 21.2148 20.1651V20.8755H23.2606V12.3501H21.2148V16.8792Z" fill="#60646C"/>
<path d="M27.256 9.24219H25.2102V12.3502H23.6981V14.3037H25.2102V20.8749H27.256V14.3037H28.7682V12.3502H27.256V9.24219Z" fill="#60646C"/>
<path d="M35.1785 18.3005C34.7338 18.6557 34.1111 18.9222 33.4885 18.9222C32.0653 18.9222 31.0869 17.8565 31.0869 16.4356C31.0869 15.0147 32.0653 14.0378 33.4885 14.0378C34.1111 14.0378 34.7338 14.2154 35.1785 14.6594L35.4454 14.9259L36.8685 13.5938L36.5127 13.3273C35.7122 12.6169 34.6448 12.1729 33.4885 12.1729C30.9979 12.1729 29.13 14.0378 29.13 16.5244C29.13 19.011 30.9979 20.8759 33.4885 20.8759C34.6448 20.8759 35.7122 20.4319 36.5127 19.7214L36.8685 19.455L35.4454 18.0341L35.1785 18.3005Z" fill="#60646C"/>
<path d="M44.0732 13.0608C43.4506 12.4392 42.828 12.1728 41.8495 12.1728C41.1379 12.1728 40.4264 12.3504 39.8927 12.8832V8.26562H37.8469V20.8751H39.8927V16.1688C39.8927 14.2152 41.2269 14.0376 41.7606 14.0376C43.0059 14.0376 42.9169 15.192 42.9169 15.8136V20.7863H44.9627V15.9024C44.9627 14.748 44.6959 13.6824 44.0732 13.0608Z" fill="#60646C"/>
<path d="M33.4016 17.9453C34.1876 17.9453 34.8247 17.3092 34.8247 16.5244C34.8247 15.7397 34.1876 15.1035 33.4016 15.1035C32.6156 15.1035 31.9784 15.7397 31.9784 16.5244C31.9784 17.3092 32.6156 17.9453 33.4016 17.9453Z" fill="#EF4335"/>
<path d="M9.20594 17.7672C8.49435 18.4776 7.42697 18.9216 6.27065 18.9216C4.04694 18.9216 2.44587 17.1456 2.44587 14.748C2.44587 12.3504 4.04694 10.5745 6.35959 10.5745C7.42697 10.5745 8.49435 11.0185 9.29488 11.8176L9.56173 12.084L10.896 10.7521L10.6291 10.4857C9.47278 9.33127 7.96066 8.70968 6.35959 8.70968C2.97956 8.62088 0.489014 11.2849 0.489014 14.748C0.489014 18.2112 2.97956 20.8752 6.27065 20.8752C7.87171 20.8752 9.47278 20.2536 10.5402 19.0992L10.807 18.8328L9.47278 17.5008L9.20594 17.7672Z" fill="#60646C"/>
<path d="M15.4035 25.9878L14.5827 27.6555C14.541 27.7404 14.4793 27.8138 14.4029 27.8694C14.3266 27.9251 14.2379 27.9613 14.1445 27.9749L12.3099 28.2424C12.2239 28.2549 12.1431 28.2913 12.0766 28.3474C12.0102 28.4036 11.9607 28.4772 11.9339 28.5601C11.9071 28.643 11.9039 28.7318 11.9247 28.8164C11.9456 28.901 11.9897 28.978 12.0519 29.0388L13.38 30.337C13.4475 30.403 13.4979 30.4844 13.5271 30.5743C13.5562 30.6642 13.5632 30.7598 13.5473 30.8529L13.2338 32.6862C13.2192 32.772 13.2289 32.8602 13.2617 32.9408C13.2945 33.0214 13.3491 33.0912 13.4194 33.1423C13.4897 33.1934 13.5728 33.2238 13.6594 33.23C13.746 33.2362 13.8325 33.218 13.9094 33.1775L15.5505 32.3121C15.634 32.268 15.7269 32.245 15.8213 32.245C15.9156 32.245 16.0086 32.268 16.0921 32.3121L17.7332 33.1775C17.81 33.218 17.8966 33.2362 17.9832 33.23C18.0698 33.2238 18.1529 33.1934 18.2232 33.1423C18.2935 33.0912 18.3481 33.0214 18.3809 32.9408C18.4137 32.8602 18.4233 32.772 18.4088 32.6862L18.0952 30.8529C18.0794 30.7598 18.0863 30.6642 18.1155 30.5743C18.1446 30.4844 18.1951 30.403 18.2625 30.337L19.5906 29.0388C19.6529 28.978 19.697 28.901 19.7178 28.8164C19.7387 28.7318 19.7355 28.643 19.7087 28.5601C19.6818 28.4772 19.6324 28.4036 19.5659 28.3474C19.4995 28.2913 19.4187 28.2549 19.3327 28.2424L17.4973 27.9749C17.4039 27.9613 17.3153 27.9251 17.2389 27.8694C17.1626 27.8138 17.1009 27.7404 17.0591 27.6555L16.2383 25.9878C16.1999 25.9097 16.1404 25.8439 16.0667 25.7979C15.9929 25.7519 15.9078 25.7275 15.8209 25.7275C15.7341 25.7275 15.6489 25.7519 15.5752 25.7979C15.5014 25.8439 15.442 25.9097 15.4035 25.9878Z" fill="#F59E0B"/>
<path d="M26.8048 25.9871L25.984 27.6548C25.9422 27.7397 25.8805 27.8131 25.8042 27.8687C25.7278 27.9243 25.6391 27.9605 25.5458 27.9741L23.7104 28.2416C23.6244 28.2541 23.5436 28.2905 23.4771 28.3467C23.4107 28.4028 23.3613 28.4765 23.3344 28.5594C23.3076 28.6423 23.3044 28.731 23.3253 28.8156C23.3461 28.9002 23.3902 28.9773 23.4524 29.038L24.7805 30.3363C24.848 30.4023 24.8984 30.4837 24.9276 30.5736C24.9567 30.6634 24.9637 30.759 24.9478 30.8522L24.6343 32.6855C24.6198 32.7713 24.6294 32.8595 24.6622 32.9401C24.695 33.0207 24.7496 33.0905 24.8199 33.1416C24.8902 33.1927 24.9733 33.2231 25.0599 33.2293C25.1465 33.2355 25.2331 33.2173 25.3099 33.1768L26.951 32.3113C27.0345 32.2673 27.1275 32.2443 27.2218 32.2443C27.3161 32.2443 27.4091 32.2673 27.4926 32.3113L29.1337 33.1768C29.2105 33.2173 29.2971 33.2355 29.3837 33.2293C29.4703 33.2231 29.5534 33.1927 29.6237 33.1416C29.694 33.0905 29.7486 33.0207 29.7814 32.9401C29.8142 32.8595 29.8238 32.7713 29.8093 32.6855L29.4958 30.8522C29.4799 30.759 29.4868 30.6634 29.516 30.5735C29.5451 30.4837 29.5956 30.4023 29.6631 30.3363L30.9911 29.038C31.0534 28.9773 31.0975 28.9002 31.1183 28.8156C31.1392 28.731 31.136 28.6423 31.1092 28.5594C31.0824 28.4765 31.0329 28.4028 30.9665 28.3467C30.9 28.2905 30.8192 28.2541 30.7332 28.2416L28.8978 27.9741C28.8045 27.9605 28.7158 27.9243 28.6394 27.8687C28.5631 27.8131 28.5014 27.7397 28.4596 27.6548L27.6388 25.9871C27.6003 25.9091 27.5409 25.8436 27.4672 25.7977C27.3935 25.7518 27.3085 25.7275 27.2218 25.7275C27.1351 25.7275 27.0501 25.7518 26.9764 25.7977C26.9027 25.8436 26.8433 25.9091 26.8048 25.9871Z" fill="#F59E0B"/>
<path d="M38.2266 25.9859L37.4058 27.6536C37.364 27.7384 37.3023 27.8119 37.226 27.8675C37.1496 27.9231 37.061 27.9593 36.9676 27.9729L35.1324 28.2404C35.0464 28.2529 34.9656 28.2893 34.8992 28.3455C34.8328 28.4016 34.7833 28.4753 34.7565 28.5582C34.7296 28.6411 34.7265 28.7298 34.7473 28.8144C34.7682 28.899 34.8122 28.9761 34.8745 29.0368L36.2026 30.3351C36.27 30.4011 36.3205 30.4825 36.3496 30.5724C36.3788 30.6622 36.3857 30.7578 36.3699 30.851L36.0564 32.6842C36.0418 32.7701 36.0515 32.8583 36.0843 32.9389C36.1171 33.0195 36.1717 33.0893 36.242 33.1404C36.3122 33.1915 36.3954 33.2218 36.4819 33.2281C36.5685 33.2343 36.6551 33.2161 36.7319 33.1755L38.3731 32.3101C38.4566 32.2661 38.5495 32.2431 38.6439 32.2431C38.7382 32.2431 38.8311 32.2661 38.9146 32.3101L40.5558 33.1755C40.6326 33.2161 40.7192 33.2343 40.8058 33.2281C40.8924 33.2218 40.9755 33.1915 41.0458 33.1404C41.116 33.0893 41.1706 33.0195 41.2034 32.9389C41.2362 32.8583 41.2459 32.7701 41.2313 32.6842L40.9178 30.851C40.902 30.7578 40.9089 30.6622 40.938 30.5723C40.9672 30.4825 41.0177 30.4011 41.0851 30.3351L42.4132 29.0368C42.4755 28.9761 42.5195 28.899 42.5404 28.8144C42.5613 28.7298 42.5581 28.6411 42.5312 28.5582C42.5044 28.4753 42.455 28.4016 42.3885 28.3455C42.3221 28.2893 42.2413 28.2529 42.1553 28.2404L40.3199 27.9729C40.2265 27.9593 40.1378 27.9231 40.0615 27.8675C39.9852 27.8119 39.9234 27.7384 39.8817 27.6536L39.0614 25.9859C39.0229 25.9077 38.9635 25.842 38.8897 25.796C38.816 25.75 38.7308 25.7256 38.644 25.7256C38.5571 25.7256 38.472 25.75 38.3982 25.796C38.3245 25.842 38.265 25.9077 38.2266 25.9859Z" fill="#F59E0B"/>
<path d="M50.4637 25.9871L51.2845 27.6548C51.3262 27.7397 51.3879 27.8131 51.4643 27.8688C51.5406 27.9244 51.6293 27.9606 51.7227 27.9742L53.5578 28.2417C53.6438 28.2542 53.7246 28.2906 53.791 28.3467C53.8575 28.4029 53.9069 28.4766 53.9338 28.5594C53.9606 28.6423 53.9638 28.7311 53.9429 28.8157C53.9221 28.9003 53.878 28.9773 53.8157 29.0381L52.4876 30.3364C52.4202 30.4023 52.3697 30.4838 52.3406 30.5736C52.3115 30.6635 52.3045 30.7591 52.3203 30.8522L52.6339 32.6855C52.6484 32.7713 52.6388 32.8595 52.606 32.9401C52.5732 33.0207 52.5186 33.0905 52.4483 33.1416C52.378 33.1927 52.2949 33.2231 52.2083 33.2293C52.1217 33.2355 52.0351 33.2174 51.9583 33.1768L50.3172 32.3114C50.2337 32.2674 50.1407 32.2444 50.0464 32.2444C49.952 32.2444 49.8591 32.2674 49.7756 32.3114L48.1345 33.1768C48.0576 33.2174 47.9711 33.2355 47.8845 33.2293C47.7979 33.2231 47.7148 33.1927 47.6445 33.1416C47.5742 33.0905 47.5196 33.0207 47.4868 32.9401C47.454 32.8595 47.4443 32.7713 47.4589 32.6855L47.7724 30.8522C47.7883 30.7591 47.7813 30.6635 47.7522 30.5736C47.7231 30.4837 47.6726 30.4023 47.6051 30.3364L46.277 29.0381C46.2148 28.9773 46.1707 28.9003 46.1498 28.8157C46.129 28.7311 46.1322 28.6423 46.159 28.5594C46.1858 28.4766 46.2353 28.4029 46.3017 28.3467C46.3682 28.2906 46.449 28.2542 46.535 28.2417L48.3703 27.9742C48.4637 27.9606 48.5524 27.9244 48.6288 27.8688C48.7051 27.8131 48.7668 27.7397 48.8086 27.6548L49.6272 25.9871C49.6654 25.9085 49.7249 25.8423 49.7988 25.796C49.8728 25.7497 49.9582 25.7251 50.0454 25.7251C50.1326 25.7251 50.218 25.7497 50.292 25.796C50.3659 25.8423 50.4254 25.9085 50.4637 25.9871Z" fill="#F59E0B"/>
<path d="M51.9583 33.1796L50.8406 32.5901V26.7549L51.2842 27.6564C51.326 27.7413 51.3877 27.8147 51.464 27.8703C51.5404 27.926 51.629 27.9622 51.7224 27.9758L53.5578 28.2433C53.6438 28.2558 53.7246 28.2921 53.791 28.3483C53.8575 28.4044 53.9069 28.4781 53.9338 28.561C53.9606 28.6439 53.9638 28.7327 53.9429 28.8173C53.9221 28.9018 53.878 28.9789 53.8157 29.0397L52.4876 30.3379C52.4202 30.4039 52.3697 30.4853 52.3406 30.5752C52.3115 30.665 52.3045 30.7607 52.3203 30.8538L52.6339 32.6871C52.6487 32.773 52.6392 32.8614 52.6066 32.9422C52.5739 33.023 52.5193 33.093 52.449 33.1442C52.3786 33.1955 52.2954 33.226 52.2087 33.2322C52.122 33.2385 52.0352 33.2203 51.9583 33.1796Z" fill="#FDE3AC"/>
<path d="M3.98959 25.9851L3.16878 27.6531C3.12703 27.738 3.06532 27.8114 2.98898 27.867C2.91264 27.9226 2.82396 27.9588 2.73057 27.9724L0.895192 28.24C0.809195 28.2524 0.728398 28.2888 0.661953 28.345C0.595507 28.4011 0.546064 28.4748 0.519222 28.5577C0.492379 28.6406 0.489211 28.7293 0.510072 28.8139C0.530934 28.8985 0.575 28.9756 0.63727 29.0364L1.96537 30.3346C2.03281 30.4006 2.08326 30.482 2.1124 30.5719C2.14154 30.6617 2.14849 30.7573 2.13266 30.8505L1.81913 32.6838C1.80457 32.7696 1.81424 32.8578 1.84703 32.9384C1.87983 33.019 1.93445 33.0888 2.00472 33.1399C2.07499 33.191 2.15812 33.2214 2.2447 33.2276C2.33129 33.2338 2.41787 33.2156 2.49469 33.1751L4.13583 32.3096C4.21934 32.2656 4.31227 32.2426 4.40662 32.2426C4.50096 32.2426 4.59389 32.2656 4.6774 32.3096L6.31854 33.1751C6.39536 33.2156 6.48195 33.2338 6.56853 33.2276C6.65511 33.2214 6.73824 33.191 6.80851 33.1399C6.87878 33.0888 6.9334 33.019 6.9662 32.9384C6.999 32.8578 7.00866 32.7696 6.9941 32.6838L6.68057 30.8505C6.66472 30.7573 6.67166 30.6617 6.7008 30.5719C6.72994 30.482 6.78041 30.4006 6.84787 30.3346L8.17596 29.0364C8.23823 28.9756 8.2823 28.8985 8.30316 28.8139C8.32402 28.7293 8.32085 28.6406 8.294 28.5577C8.26716 28.4748 8.21772 28.4011 8.15127 28.345C8.08483 28.2888 8.00404 28.2524 7.91804 28.24L6.08364 27.9722C5.99025 27.9586 5.90157 27.9224 5.82523 27.8668C5.74889 27.8111 5.68718 27.7377 5.64543 27.6529L4.82461 25.9851C4.78622 25.9069 4.72676 25.8411 4.65297 25.7951C4.57918 25.749 4.49401 25.7246 4.4071 25.7246C4.3202 25.7246 4.23503 25.749 4.16124 25.7951C4.08745 25.8411 4.02799 25.9069 3.98959 25.9851Z" fill="#E2E2E2"/>
<path d="M4.81634 25.9841L5.63716 27.6519C5.67891 27.7367 5.74062 27.8101 5.81696 27.8658C5.8933 27.9214 5.98198 27.9576 6.07537 27.9712L7.91074 28.2387C7.99674 28.2512 8.07753 28.2876 8.14398 28.3437C8.21043 28.3999 8.25987 28.4736 8.28671 28.5565C8.31355 28.6393 8.31672 28.7281 8.29586 28.8127C8.275 28.8973 8.23094 28.9743 8.16867 29.0351L6.84058 30.3334C6.77314 30.3994 6.72268 30.4808 6.69354 30.5706C6.6644 30.6605 6.65744 30.7561 6.67327 30.8492L6.9868 32.6825C7.00136 32.7683 6.9917 32.8565 6.95891 32.9371C6.92611 33.0177 6.87149 33.0875 6.80122 33.1386C6.73095 33.1897 6.64782 33.2201 6.56124 33.2263C6.47465 33.2326 6.38806 33.2144 6.31124 33.1738L4.67011 32.3084C4.5866 32.2644 4.49367 32.2414 4.39932 32.2414C4.30498 32.2414 4.21205 32.2644 4.12854 32.3084L2.4874 33.1738C2.41058 33.2144 2.32399 33.2326 2.2374 33.2263C2.15082 33.2201 2.0677 33.1897 1.99743 33.1386C1.92716 33.0875 1.87254 33.0177 1.83974 32.9371C1.80694 32.8565 1.79728 32.7683 1.81184 32.6825L2.12537 30.8492C2.14122 30.7561 2.13428 30.6605 2.10514 30.5706C2.076 30.4808 2.02552 30.3993 1.95806 30.3334L0.629968 29.0351C0.567698 28.9743 0.52364 28.8973 0.502779 28.8127C0.481917 28.7281 0.485086 28.6393 0.511928 28.5565C0.538771 28.4736 0.588213 28.3999 0.654659 28.3437C0.721105 28.2876 0.801902 28.2512 0.887899 28.2387L2.72328 27.9712C2.81667 27.9576 2.90535 27.9214 2.98169 27.8658C3.05803 27.8101 3.11974 27.7367 3.16149 27.6519L3.9823 25.9841C4.0208 25.9062 4.08025 25.8406 4.15393 25.7948C4.22761 25.7489 4.31261 25.7246 4.39932 25.7246C4.48604 25.7246 4.57103 25.7489 4.64472 25.7948C4.7184 25.8406 4.77784 25.9062 4.81634 25.9841Z" fill="#F59E0B"/>
</svg>
